<?xml version="1.0" standalone="no"?>
<!DOCTYPE svg PUBLIC "-//W3C//DTD SVG 20010904//EN"
 "http://www.w3.org/TR/2001/REC-SVG-20010904/DTD/svg10.dtd">
<svg version="1.0" xmlns="http://www.w3.org/2000/svg"
 width="500.000000pt" height="500.000000pt" viewBox="0 0 500.000000 500.000000"
 preserveAspectRatio="xMidYMid meet">
<metadata>
Created by potrace 1.14, written by Peter Selinger 2001-2017
</metadata>
<g transform="translate(0.000000,500.000000) scale(0.100000,-0.100000)"
fill="#000000" stroke="none">
<path d="M2357 4613 c-3 -2 -108 -14 -149 -16 -21 -1 -38 -5 -38 -8 0 -3 -12
-6 -27 -6 -16 -1 -41 -4 -58 -8 -16 -4 -38 -7 -47 -8 -10 -1 -18 -4 -18 -7 0
-4 -6 -7 -12 -7 -34 -2 -76 -12 -103 -23 -16 -6 -43 -14 -60 -17 -16 -3 -31
-9 -33 -14 -2 -5 -14 -9 -27 -9 -13 0 -27 -4 -30 -10 -3 -5 -13 -10 -22 -10
-9 0 -25 -8 -36 -17 -15 -13 -18 -14 -12 -3 7 12 6 13 -7 3 -8 -7 -18 -10 -21
-6 -4 3 -7 1 -7 -6 0 -7 -4 -9 -10 -6 -5 3 -10 2 -10 -4 0 -5 -10 -13 -22 -17
-41 -12 -128 -57 -128 -66 0 -4 -3 -7 -7 -7 -20 3 -46 -2 -40 -7 4 -4 -16 -19
-43 -33 -27 -14 -60 -36 -75 -49 -14 -13 -37 -28 -51 -34 -13 -6 -24 -15 -24
-19 0 -4 -9 -11 -20 -14 -11 -4 -18 -11 -15 -16 4 -5 -3 -9 -15 -9 -12 0 -18
-4 -15 -10 3 -5 0 -10 -8 -10 -8 0 -18 -7 -21 -16 -4 -9 -9 -14 -12 -11 -3 2
-56 -46 -117 -108 -123 -124 -179 -185 -169 -185 4 -1 -4 -10 -17 -20 -13 -11
-20 -20 -17 -20 4 0 -2 -9 -12 -20 -18 -19 -64 -85 -108 -155 -10 -16 -17 -33
-16 -37 1 -5 -2 -8 -6 -8 -5 0 -14 -16 -22 -35 -8 -19 -18 -35 -24 -35 -5 0
-6 -3 -3 -6 4 -4 -2 -19 -13 -34 -11 -16 -20 -31 -20 -35 0 -4 -10 -28 -23
-54 -13 -25 -24 -50 -25 -56 -4 -21 -36 -100 -45 -113 -5 -7 -7 -15 -4 -19 4
-3 1 -15 -5 -27 -7 -11 -13 -27 -14 -35 -2 -8 -6 -26 -10 -40 -4 -14 -8 -29
-9 -33 -2 -5 -4 -11 -5 -15 -1 -5 -2 -12 -1 -17 1 -4 -4 -15 -11 -24 -11 -13
-11 -15 2 -7 12 6 13 5 3 -6 -7 -7 -13 -26 -13 -41 0 -15 -4 -28 -8 -28 -5 0
-8 -12 -7 -27 1 -16 -2 -42 -6 -60 -5 -26 -3 -32 12 -36 11 -3 19 0 19 6 0 8
3 8 11 0 7 -7 21 -8 39 -3 18 5 32 4 39 -3 8 -8 11 -8 11 0 0 7 11 8 34 3 19
-4 40 -4 47 1 7 4 19 3 26 -3 9 -7 13 -7 13 0 0 6 13 7 34 2 19 -4 40 -4 47 1
7 4 19 3 26 -3 9 -7 13 -7 13 0 0 6 13 7 34 2 19 -4 40 -4 47 1 7 4 19 3 26
-3 7 -6 13 -7 13 -2 0 5 87 7 196 4 108 -3 201 -2 207 2 6 4 17 2 24 -4 9 -7
13 -7 13 0 0 6 13 7 34 2 19 -4 40 -4 47 1 7 4 19 3 26 -3 9 -7 13 -7 13 0 0
6 13 7 34 2 19 -4 40 -4 47 1 7 4 19 3 26 -3 9 -7 13 -7 13 2 0 9 4 9 13 2 8
-7 18 -7 27 -2 9 5 19 5 27 -2 9 -7 13 -7 13 0 0 6 13 7 34 2 19 -4 40 -4 47
1 7 4 19 3 26 -3 9 -7 13 -7 13 0 0 6 13 7 34 2 18 -4 41 -3 50 2 10 6 16 5
16 -2 0 -7 6 -8 14 -3 8 4 103 6 210 3 108 -3 196 -1 196 3 0 4 9 3 20 -3 11
-6 20 -7 20 -2 0 5 18 6 40 2 22 -4 40 -3 40 2 0 5 9 4 19 -2 12 -6 22 -6 25
-1 3 5 21 5 41 1 21 -5 35 -4 35 1 0 6 9 5 20 -1 11 -6 20 -7 20 -2 0 5 18 6
40 2 22 -4 40 -3 40 2 0 5 9 4 20 -2 11 -6 20 -7 20 -2 0 5 18 6 40 2 22 -4
40 -3 40 2 0 5 9 4 20 -2 11 -6 20 -7 20 -3 0 4 90 6 200 3 110 -3 200 -1 200
3 0 4 9 3 20 -3 11 -6 20 -7 20 -2 0 5 18 6 40 2 22 -4 40 -3 40 2 0 5 9 4 20
-2 11 -6 20 -7 20 -2 0 5 18 6 40 2 22 -4 40 -3 40 2 0 5 9 4 20 -2 15 -8 20
-8 20 1 0 8 4 8 13 1 8 -7 18 -7 27 -2 9 5 19 5 27 -2 8 -6 13 -7 13 -1 0 7
15 8 40 3 22 -4 40 -3 40 2 0 5 9 4 20 -2 11 -6 20 -7 20 -2 0 5 18 6 40 2 25
-5 40 -4 40 3 0 6 5 5 13 -1 7 -6 18 -8 24 -4 6 4 99 5 207 2 108 -3 196 -1
196 3 0 4 9 3 20 -3 11 -6 20 -7 20 -1 0 5 14 6 34 1 19 -4 40 -4 47 1 7 4 19
3 26 -3 9 -7 13 -7 13 0 0 6 13 7 34 2 19 -4 40 -4 47 1 7 4 19 3 26 -3 7 -6
13 -7 13 -2 0 5 11 9 25 9 14 0 25 -3 25 -7 0 -11 31 -2 40 12 4 7 4 26 -1 43
-5 16 -6 34 -3 38 3 5 0 17 -5 28 -6 10 -12 33 -13 50 -1 17 -5 31 -9 31 -4 0
-6 13 -5 29 1 17 -1 28 -5 26 -3 -3 -10 14 -14 38 -5 23 -9 44 -10 47 -1 3 -5
14 -9 25 -7 18 -13 36 -30 88 -3 9 -5 20 -5 22 0 3 -8 20 -17 38 -31 58 -34
67 -34 82 0 8 -4 15 -10 15 -5 0 -10 8 -10 19 0 10 -7 24 -15 31 -8 6 -14 15
-13 18 4 13 -38 92 -45 86 -4 -4 -7 2 -7 14 0 12 -4 22 -10 22 -5 0 -10 7 -10
15 0 8 -5 15 -12 15 -6 0 -9 3 -5 6 3 4 1 12 -6 20 -27 30 -37 44 -37 49 1 8
-82 119 -92 123 -4 2 -8 9 -8 16 0 6 -9 18 -20 26 -11 8 -20 18 -20 23 0 4
-52 59 -115 123 -63 63 -115 112 -115 110 0 -3 -11 5 -24 17 -13 12 -34 30
-47 40 -13 10 -37 29 -54 42 -28 24 -40 29 -57 26 -5 0 -8 7 -8 16 0 9 -3 14
-6 10 -3 -3 -17 4 -30 16 -13 11 -31 22 -39 23 -17 3 -46 29 -39 36 2 3 -7 4
-21 3 -14 -2 -23 1 -20 5 7 11 -30 32 -39 23 -3 -3 -6 -1 -6 6 0 7 -6 11 -14
8 -8 -3 -16 0 -19 6 -3 7 -32 23 -66 36 -33 13 -61 28 -61 32 0 4 -9 6 -20 4
-11 -2 -20 -1 -20 3 0 11 -61 33 -71 26 -5 -3 -9 -1 -9 4 0 9 -55 26 -72 23
-5 0 -8 4 -8 10 0 6 -9 9 -20 6 -11 -3 -20 -1 -20 5 0 6 -7 8 -15 5 -8 -4 -17
-2 -20 4 -4 5 -11 7 -16 4 -5 -4 -9 -2 -9 3 0 5 -10 8 -22 7 -13 -1 -27 1 -33
5 -5 4 -32 11 -60 15 -27 5 -57 10 -65 12 -8 2 -35 5 -60 7 -25 2 -45 5 -45 6
0 8 -380 21 -388 13z"/>
<path d="M410 2727 c0 -5 -4 -6 -8 -3 -10 6 -15 -61 -15 -202 0 -70 4 -96 14
-103 8 -5 15 -5 17 1 2 5 13 5 26 0 13 -4 29 -4 39 1 12 7 17 6 17 -3 0 -9 3
-9 11 -1 8 8 20 8 34 3 13 -5 26 -6 29 -2 10 10 36 11 36 1 0 -4 10 -5 22 0
12 4 37 5 55 1 19 -5 36 -4 39 2 3 5 11 4 20 -3 11 -9 14 -8 14 2 0 11 2 11
10 -1 8 -12 10 -12 10 -1 0 10 3 11 13 2 8 -6 17 -8 20 -4 9 9 57 10 57 2 0
-9 21 -6 38 4 7 5 12 3 12 -3 0 -6 5 -8 12 -4 16 10 58 12 58 3 0 -9 21 -6 38
4 7 5 12 3 12 -3 0 -6 5 -8 12 -4 16 10 58 12 58 3 0 -9 21 -6 38 4 7 5 12 3
12 -3 0 -6 5 -8 12 -4 16 10 58 12 58 3 0 -9 21 -6 38 4 7 5 12 3 12 -3 0 -6
5 -8 11 -5 16 10 59 13 59 5 0 -10 20 -8 38 3 7 5 12 3 12 -3 0 -6 5 -8 12 -4
16 10 58 12 58 3 0 -9 21 -6 38 4 7 5 12 3 12 -3 0 -6 5 -8 12 -4 16 10 58 12
58 3 0 -9 21 -6 38 4 7 5 12 3 12 -3 0 -6 5 -8 12 -4 16 10 58 12 58 3 0 -9
21 -6 38 4 7 5 12 3 12 -3 0 -6 5 -8 11 -5 16 10 59 13 59 5 0 -10 20 -8 38 3
7 5 12 3 12 -3 0 -6 5 -8 12 -4 16 10 58 12 58 3 0 -9 21 -6 38 4 7 5 12 3 12
-3 0 -6 5 -8 12 -4 16 10 58 12 58 3 0 -9 21 -6 38 4 7 5 12 3 12 -3 0 -6 5
-8 12 -4 16 10 58 12 58 3 0 -9 21 -6 38 4 7 5 12 3 12 -3 0 -7 6 -8 17 -1 10
5 26 5 40 0 13 -5 23 -5 23 0 0 4 7 8 15 8 8 0 15 -3 15 -6 0 -9 43 -6 58 3 7
4 12 2 12 -4 0 -7 6 -8 18 -1 10 6 24 6 32 1 8 -5 19 -6 24 -3 15 10 56 10 56
0 0 -4 9 -3 20 3 12 6 20 7 20 1 0 -10 19 -9 38 2 7 5 12 3 12 -3 0 -6 5 -8
12 -4 16 10 58 12 58 3 0 -9 21 -6 38 4 7 5 12 3 12 -3 0 -6 5 -8 12 -4 16 10
58 12 58 3 0 -9 21 -6 38 4 7 5 12 3 12 -3 0 -6 5 -8 12 -4 16 10 58 12 58 3
0 -9 21 -6 38 4 7 5 12 3 12 -3 0 -6 5 -8 12 -4 16 10 58 12 58 3 0 -9 21 -6
38 4 7 5 12 3 12 -3 0 -6 5 -8 12 -4 16 10 58 12 58 3 0 -9 21 -6 38 4 7 5 12
3 12 -3 0 -6 5 -8 12 -4 16 10 58 12 58 3 0 -9 21 -6 38 4 7 5 12 3 12 -3 0
-6 5 -8 12 -4 16 10 58 12 58 3 0 -9 21 -6 38 4 7 5 12 3 12 -3 0 -6 5 -8 12
-4 16 10 58 12 58 3 0 -9 21 -6 38 4 7 5 12 3 12 -3 0 -6 5 -8 12 -4 16 10 58
12 58 3 0 -9 21 -6 38 4 7 5 12 3 12 -3 0 -6 5 -8 12 -4 16 10 58 12 58 3 0
-9 21 -6 38 4 7 5 12 3 12 -3 0 -6 5 -8 12 -4 16 10 58 12 58 3 0 -9 21 -6 38
4 7 5 12 3 12 -3 0 -7 6 -8 17 -1 10 5 26 5 40 0 14 -5 23 -5 23 1 0 12 22 9
31 -4 4 -4 15 -4 25 2 11 6 27 7 41 1 13 -5 23 -5 23 0 0 4 7 8 15 8 8 0 15
-3 15 -6 0 -9 43 -6 58 3 7 4 12 3 12 -2 0 -5 7 -9 15 -9 8 0 15 4 15 9 0 5 8
4 19 -1 10 -6 21 -8 24 -5 9 9 57 12 57 4 0 -10 20 -8 38 3 7 5 12 3 12 -4 0
-10 3 -10 11 -2 7 7 21 8 40 3 16 -5 29 -5 29 -1 0 4 7 8 15 8 8 0 15 -5 15
-11 0 -6 5 -4 10 4 5 8 10 10 10 3 0 -12 25 -12 37 1 9 9 11 256 2 256 -3 0
-5 11 -4 25 2 14 0 26 -3 26 -33 6 -4192 2 -4192 -4z"/>
<path d="M427 2358 c-5 -3 -16 -4 -24 -1 -11 4 -12 -7 -8 -53 12 -125 19 -169
31 -198 6 -15 4 -17 -6 -11 -9 5 -7 -1 3 -16 l17 -24 2061 -1 c1451 0 2062 3
2067 10 7 12 12 29 17 66 1 14 4 25 5 25 1 0 3 18 5 40 2 22 6 68 10 102 l7
63 -31 -4 c-17 -2 -33 -1 -36 2 -4 5 -74 6 -92 2 -20 -5 -114 -2 -120 3 -3 4
-13 2 -22 -3 -10 -5 -23 -5 -30 -1 -7 5 -28 5 -47 1 -20 -5 -37 -4 -40 2 -4 5
-10 5 -18 -1 -7 -6 -26 -7 -49 -1 -22 4 -39 4 -43 -1 -3 -5 -10 -6 -16 -3 -10
6 -75 9 -95 4 -5 -1 -33 -1 -63 -1 -54 1 -68 1 -92 1 -7 -1 -28 1 -46 3 -18 2
-35 0 -37 -3 -4 -7 -101 -4 -121 4 -8 3 -14 1 -14 -4 0 -5 -6 -7 -13 -4 -20 7
-88 11 -92 5 -1 -3 -29 -5 -62 -3 -55 2 -65 3 -95 2 -7 -1 -28 1 -46 3 -18 2
-35 0 -37 -3 -4 -7 -101 -4 -121 4 -8 3 -14 1 -14 -4 0 -5 -6 -7 -13 -4 -20 7
-88 11 -92 5 -1 -3 -29 -5 -62 -3 -55 2 -65 3 -95 2 -7 -1 -28 1 -46 3 -18 2
-35 0 -37 -3 -4 -7 -101 -4 -121 4 -8 3 -14 1 -14 -4 0 -5 -12 -5 -27 -1 -16
5 -37 5 -48 1 -11 -4 -34 -4 -52 1 -22 4 -33 3 -33 -4 0 -7 -3 -8 -10 -1 -6 6
-31 8 -61 4 -27 -4 -52 -3 -55 2 -3 5 -11 5 -17 1 -13 -8 -75 -8 -83 0 -4 3
-17 2 -30 -3 -13 -5 -25 -6 -28 -2 -4 7 -50 8 -66 2 -16 -6 -97 -4 -107 3 -6
4 -14 4 -17 -2 -4 -5 -19 -6 -34 -3 -24 6 -59 7 -72 2 -14 -5 -110 -4 -110 1
0 4 -16 3 -35 -1 -19 -4 -37 -5 -39 -1 -4 6 -51 6 -66 1 -16 -6 -97 -4 -107 3
-6 4 -14 4 -17 -2 -4 -5 -19 -6 -34 -3 -24 6 -59 7 -72 2 -14 -5 -110 -4 -110
1 0 4 -16 3 -35 -1 -19 -4 -37 -5 -39 -1 -4 6 -51 6 -66 1 -16 -6 -97 -4 -107
3 -6 4 -14 3 -17 -2 -4 -6 -12 -8 -19 -5 -20 7 -88 11 -92 5 -4 -8 -114 -5
-122 3 -3 3 -14 1 -24 -4 -10 -6 -20 -6 -23 -1 -3 4 -24 5 -46 1 -23 -4 -43
-3 -46 2 -3 5 -11 5 -17 0 -14 -10 -57 -9 -74 1 -7 4 -14 3 -18 -3 -4 -6 -11
-7 -17 -4 -14 9 -107 11 -121 2z"/>
<path d="M906 1982 c-2 -4 -104 -7 -226 -7 -122 0 -223 -3 -226 -6 -2 -4 3
-25 10 -47 8 -22 12 -43 9 -46 -4 -3 -1 -6 6 -6 7 0 11 -6 8 -14 -3 -7 -1 -18
3 -22 5 -5 11 -18 13 -29 1 -11 7 -27 12 -35 5 -8 10 -21 11 -27 6 -40 30 -73
54 -73 212 -3 412 -2 416 3 3 3 11 4 17 2 28 -9 77 -13 77 -5 0 4 18 4 39 0
25 -4 44 -3 50 3 6 6 11 7 11 2 0 -11 91 -12 108 -1 7 4 12 4 12 -1 0 -12 174
-10 182 2 5 6 8 6 8 -1 0 -14 30 -14 30 0 0 6 4 5 9 -3 6 -9 11 -10 15 -3 4 6
14 8 23 5 23 -9 66 -8 81 1 7 4 12 4 12 -1 0 -10 92 -9 108 1 7 4 12 4 12 -1
0 -10 93 -8 109 1 6 4 11 4 11 -1 0 -10 92 -9 108 1 7 4 12 4 12 -1 0 -10 133
-9 149 1 6 4 11 4 11 -1 0 -10 133 -9 149 1 6 4 11 4 11 -1 0 -10 133 -9 149
1 6 4 11 4 11 -1 0 -10 133 -9 149 1 6 4 11 4 11 -1 0 -10 133 -9 149 1 6 4
11 4 11 -1 0 -10 133 -9 149 1 6 4 11 4 11 -1 0 -10 133 -9 149 1 6 4 11 4 11
-1 0 -10 93 -8 109 1 6 4 11 4 11 -1 0 -10 92 -9 108 1 7 4 12 4 12 -1 0 -10
92 -9 108 1 7 4 12 4 12 -1 0 -12 94 -10 102 2 5 6 8 5 8 -4 0 -10 3 -11 13
-2 8 6 17 8 20 5 9 -9 191 -9 206 0 6 4 11 4 11 -1 0 -12 174 -10 182 2 5 6 8
6 8 -1 0 -14 30 -14 30 0 0 6 4 5 9 -3 6 -9 11 -10 15 -3 4 6 14 8 23 5 23 -9
66 -8 81 1 7 4 12 4 12 -1 0 -8 194 -6 218 2 7 2 11 8 10 12 0 4 3 19 9 33 6
14 12 30 13 35 1 6 6 17 11 26 4 9 10 29 13 44 3 16 9 31 13 34 4 3 8 15 8 26
-1 11 3 23 7 26 5 3 10 19 11 35 l2 29 -337 0 c-209 -1 -334 3 -331 9 4 5 1 6
-8 0 -19 -12 -119 -13 -112 0 4 5 1 6 -8 0 -19 -12 -279 -13 -272 0 4 5 1 6
-8 0 -19 -12 -159 -13 -152 0 4 5 1 6 -8 0 -19 -12 -239 -12 -232 0 4 5 1 6
-8 0 -19 -12 -119 -13 -112 0 4 5 1 6 -8 0 -19 -12 -199 -12 -192 0 4 5 1 6
-8 0 -19 -12 -119 -13 -112 0 4 5 1 6 -8 0 -19 -12 -199 -12 -192 0 4 5 1 6
-8 0 -19 -12 -119 -13 -112 0 4 5 1 6 -8 0 -19 -12 -199 -12 -192 0 4 5 1 6
-8 0 -19 -12 -119 -13 -112 0 4 5 1 6 -8 0 -19 -12 -119 -13 -112 0 4 5 1 6
-8 0 -19 -12 -159 -13 -152 0 4 5 1 6 -8 0 -19 -12 -399 -12 -392 0 4 5 1 6
-8 0 -19 -12 -119 -13 -112 0 4 5 1 6 -8 0 -17 -11 -280 -13 -273 -2 3 4 3 8
0 8 -3 0 -7 -4 -10 -8z"/>
<path d="M645 1580 c6 -10 2 -11 -18 -6 -22 5 -25 3 -20 -11 3 -10 10 -24 16
-30 5 -7 7 -13 4 -13 -4 0 5 -16 18 -36 14 -20 25 -42 25 -49 0 -6 9 -21 20
-33 12 -12 17 -22 13 -22 -4 0 -3 -4 2 -8 6 -4 25 -30 43 -59 34 -53 48 -63
85 -63 18 0 19 2 7 10 -8 5 -10 10 -4 10 6 0 14 -3 18 -7 12 -12 477 -12 469
0 -4 6 -1 7 8 1 20 -13 480 -14 472 -1 -4 6 -1 7 8 1 21 -14 2080 -14 2072 0
-5 8 -3 8 8 0 9 -7 67 -10 159 -9 179 2 183 3 175 15 -3 6 -1 10 4 10 6 0 11
4 11 10 0 10 46 81 58 90 4 3 16 24 26 48 11 23 22 42 25 42 6 0 26 45 31 68
1 4 6 12 11 19 15 17 3 19 -106 18 -55 -1 -106 2 -112 8 -9 6 -17 6 -25 -1
-16 -12 -147 -10 -167 2 -10 6 -12 5 -7 -3 5 -8 -5 -11 -36 -8 -24 1 -48 6
-54 9 -6 4 -14 4 -18 0 -12 -11 -80 -10 -88 2 -5 8 -8 8 -8 0 0 -13 -67 -13
-87 -1 -6 4 -14 3 -17 -1 -6 -10 -166 -10 -182 0 -6 4 -14 4 -18 0 -12 -12
-86 -10 -86 2 0 7 -3 7 -8 1 -10 -15 -32 -17 -46 -5 -7 5 -16 6 -20 2 -12 -11
-80 -10 -88 2 -5 7 -8 7 -8 -1 0 -7 -7 -13 -15 -13 -8 0 -15 6 -15 13 0 9 -2
9 -8 0 -8 -13 -69 -13 -88 -1 -6 4 -14 4 -18 0 -12 -12 -86 -10 -86 2 0 8 -3
7 -8 -1 -8 -12 -189 -13 -208 -1 -6 4 -14 4 -18 0 -12 -12 -86 -10 -86 2 0 8
-3 7 -8 -1 -8 -12 -189 -13 -208 -1 -6 4 -14 4 -18 0 -12 -11 -80 -10 -88 2
-5 7 -8 7 -8 -1 0 -7 -7 -13 -15 -13 -8 0 -15 6 -15 13 0 9 -2 9 -8 0 -9 -15
-72 -14 -72 1 0 7 -3 7 -8 -1 -8 -13 -69 -13 -88 -1 -6 4 -14 4 -18 0 -12 -11
-80 -10 -88 2 -5 7 -8 7 -8 -1 0 -7 -7 -13 -15 -13 -8 0 -15 6 -15 13 0 9 -2
9 -8 0 -8 -13 -69 -13 -88 -1 -6 4 -14 4 -18 0 -12 -12 -86 -10 -86 2 0 7 -3
7 -8 1 -10 -15 -32 -17 -46 -5 -7 5 -16 6 -20 2 -12 -11 -80 -10 -88 2 -5 7
-8 7 -8 -1 0 -7 -5 -13 -11 -13 -5 0 -7 5 -3 12 5 8 3 8 -7 2 -20 -13 -169
-13 -169 0 0 7 -3 6 -8 -1 -8 -13 -69 -13 -88 -1 -6 4 -14 4 -18 0 -11 -11
-169 -11 -183 0 -6 5 -14 5 -16 0 -8 -11 -438 -9 -456 2 -10 7 -12 6 -6 -4z"/>
<path d="M965 1151 c5 -9 -5 -11 -34 -7 -31 4 -41 1 -41 -10 0 -19 238 -256
263 -261 4 -1 16 -12 27 -25 l18 -23 1302 -1 1301 -1 15 21 c8 11 14 17 14 12
0 -5 11 2 24 15 51 50 86 80 93 79 4 -1 11 8 15 20 4 12 12 18 18 15 5 -3 10
-3 10 2 0 4 23 32 50 62 28 30 50 58 50 63 0 4 5 7 11 6 6 -2 13 4 14 13 3 18
-25 21 -37 4 -5 -6 -8 -6 -8 2 0 8 -21 10 -70 7 -54 -3 -69 -1 -64 9 6 9 4 9
-7 1 -8 -6 -37 -10 -66 -9 -29 1 -50 -2 -47 -6 3 -5 -2 -6 -10 -3 -9 3 -13 11
-9 18 5 8 3 8 -8 0 -17 -13 -118 -13 -138 0 -10 6 -12 5 -7 -3 6 -9 -3 -11
-33 -7 -25 3 -39 1 -36 -4 3 -6 -1 -7 -9 -4 -9 3 -13 11 -9 17 4 6 1 7 -8 1
-20 -13 -180 -14 -172 -1 4 6 1 7 -8 1 -21 -13 -121 -15 -113 -2 5 7 2 8 -7 2
-21 -13 -121 -15 -113 -2 5 7 2 8 -7 2 -21 -13 -121 -15 -113 -2 5 7 2 8 -7 2
-22 -14 -49 -15 -71 -3 -15 8 -19 8 -13 0 5 -9 -5 -11 -34 -7 -25 3 -39 1 -36
-4 3 -6 -1 -7 -9 -4 -9 3 -13 11 -9 17 4 6 1 7 -8 1 -22 -13 -120 -14 -112 0
5 8 3 8 -8 0 -8 -6 -49 -10 -96 -9 -45 0 -80 -2 -77 -7 3 -4 -2 -5 -10 -2 -9
3 -13 11 -9 17 4 6 1 7 -8 1 -22 -13 -120 -14 -112 0 5 8 3 8 -8 0 -8 -6 -40
-10 -72 -9 -31 1 -60 -1 -62 -5 -3 -5 -14 -6 -25 -3 -11 3 -17 10 -13 16 4 6
1 7 -8 1 -21 -13 -121 -15 -113 -2 5 7 2 8 -7 2 -21 -13 -121 -15 -113 -2 5 7
2 8 -7 2 -21 -13 -121 -15 -113 -2 5 7 2 8 -7 2 -21 -13 -121 -15 -113 -2 5 7
2 8 -7 2 -21 -13 -121 -15 -113 -2 5 7 2 8 -7 2 -22 -14 -121 -15 -112 -1 5 9
3 9 -8 1 -8 -6 -31 -10 -51 -10 -21 1 -38 -3 -38 -9 0 -6 -3 -6 -8 1 -6 9
-164 12 -182 4 -3 -1 -9 -1 -15 0 -31 8 -115 4 -115 -5 0 -5 -4 -4 -9 3 -5 8
-19 11 -40 7 -17 -3 -41 0 -53 6 -15 8 -19 8 -13 0z"/>
<path d="M1410 695 c0 -9 9 -19 20 -22 11 -3 20 -10 20 -15 0 -5 5 -6 10 -3 6
3 10 1 10 -4 0 -6 3 -10 8 -9 4 2 25 -8 47 -21 22 -14 42 -25 45 -26 25 -5 80
-31 80 -38 0 -4 4 -6 9 -2 5 3 13 0 16 -6 4 -5 13 -8 21 -5 8 3 14 1 14 -4 0
-6 9 -10 20 -10 11 0 20 -4 20 -10 0 -5 3 -9 8 -8 4 1 27 -5 52 -12 25 -7 48
-13 53 -12 4 1 7 -2 7 -8 0 -5 11 -10 24 -10 13 0 39 -6 57 -14 19 -7 42 -12
52 -11 9 2 17 -1 17 -6 0 -5 3 -8 8 -8 24 4 72 -2 69 -9 -5 -7 24 -10 118 -15
22 -1 43 -6 46 -10 10 -13 494 -10 494 3 0 1 18 3 40 6 71 7 100 11 100 13 0
2 10 4 23 7 12 2 32 6 45 8 12 3 22 5 22 6 0 2 12 4 55 13 26 5 40 10 75 22
11 4 27 9 35 10 8 2 38 12 67 23 28 11 54 17 57 14 3 -3 6 0 6 7 0 7 4 10 9 7
5 -3 12 1 15 10 3 8 10 13 15 9 11 -6 161 63 173 80 4 5 8 6 8 2 0 -5 13 1 29
12 16 12 33 21 39 21 5 0 15 7 22 15 10 12 6 14 -24 11 -20 -2 -36 0 -36 6 0
5 -5 6 -12 2 -17 -11 -129 -11 -150 -1 -10 4 -18 4 -18 -1 0 -11 -93 -9 -102
3 -6 7 -10 7 -15 0 -10 -13 -96 -14 -105 0 -5 7 -11 7 -15 0 -5 -6 -61 -10
-133 -10 -72 0 -128 4 -132 10 -5 7 -10 7 -15 0 -11 -14 -103 -14 -103 -1 0 6
-4 5 -9 -2 -11 -17 -21 -17 -32 0 -6 8 -12 9 -16 3 -11 -14 -103 -14 -103 -1
0 6 -4 5 -9 -2 -11 -17 -21 -17 -32 0 -6 8 -12 9 -16 3 -11 -14 -103 -14 -103
-1 0 6 -4 5 -9 -2 -4 -8 -12 -14 -16 -14 -4 0 -12 6 -16 14 -6 8 -12 9 -16 3
-10 -12 -103 -15 -103 -2 0 4 -5 5 -12 1 -17 -11 -129 -11 -150 -1 -10 4 -18
4 -18 -1 0 -11 -93 -9 -102 3 -6 7 -10 7 -15 0 -10 -13 -96 -14 -106 0 -6 6
-10 7 -13 0 -3 -8 -235 -13 -269 -5 -5 1 -12 1 -15 0 -17 -6 -77 -5 -87 2 -6
5 -14 4 -18 -2 -5 -8 -11 -8 -21 1 -11 9 -14 8 -14 -6z"/>
</g>
</svg>
