<?xml version="1.0" standalone="no"?>
<!DOCTYPE svg PUBLIC "-//W3C//DTD SVG 20010904//EN"
 "http://www.w3.org/TR/2001/REC-SVG-20010904/DTD/svg10.dtd">
<svg version="1.0" xmlns="http://www.w3.org/2000/svg"
 width="200.000000pt" height="200.000000pt" viewBox="0 0 200.000000 200.000000"
 preserveAspectRatio="xMidYMid meet">
<metadata>
Created by potrace 1.14, written by Peter Selinger 2001-2017
</metadata>
<g transform="translate(0.000000,200.000000) scale(0.100000,-0.100000)"
fill="#000000" stroke="none">
<path d="M370 1963 c-49 -10 -126 -46 -175 -83 -67 -50 -120 -129 -145 -215
-19 -66 -20 -100 -19 -670 0 -358 4 -618 10 -644 34 -152 171 -287 324 -319
22 -4 319 -7 660 -7 553 2 625 4 665 19 146 55 245 166 274 308 9 47 12 214
11 673 -2 544 -4 615 -19 655 -54 145 -155 238 -299 276 -42 11 -174 13 -657
12 -333 0 -616 -3 -630 -5z m1286 -224 c31 -16 60 -41 79 -70 l30 -44 3 -605
c2 -435 0 -617 -9 -647 -13 -48 -68 -108 -118 -129 -29 -12 -134 -14 -652 -12
l-617 3 -43 30 c-26 18 -53 50 -68 79 l-25 49 0 597 c0 549 1 600 18 643 22
59 84 112 144 124 24 4 306 8 626 8 l583 -1 49 -25z"/>
<path d="M618 1559 c-8 -5 -11 -184 -12 -568 -1 -492 1 -561 14 -562 22 -1
138 -1 187 0 l43 1 0 201 c-1 111 1 203 3 205 2 2 110 4 240 4 l237 1 0 105
c0 92 -2 104 -17 105 -10 0 -118 1 -240 1 l-223 1 0 46 c-2 173 -1 244 5 249
3 3 123 6 266 6 185 1 262 4 267 13 5 8 8 162 3 193 -1 8 -761 6 -773 -1z"/>
</g>
</svg>
