<?xml version="1.0" standalone="no"?>
<!DOCTYPE svg PUBLIC "-//W3C//DTD SVG 20010904//EN"
 "http://www.w3.org/TR/2001/REC-SVG-20010904/DTD/svg10.dtd">
<svg version="1.0" xmlns="http://www.w3.org/2000/svg"
 width="200.000000pt" height="200.000000pt" viewBox="0 0 200.000000 200.000000"
 preserveAspectRatio="xMidYMid meet">
<metadata>
Created by potrace 1.14, written by Peter Selinger 2001-2017
</metadata>
<g transform="translate(0.000000,200.000000) scale(0.100000,-0.100000)"
fill="#000000" stroke="none">
<path d="M1617 1326 c-20 -8 -45 -20 -55 -27 -38 -29 -72 -63 -72 -73 0 -6 21
-26 47 -43 46 -32 47 -32 67 -14 35 31 62 41 113 41 62 0 93 -25 93 -76 0 -56
-25 -90 -167 -235 l-134 -137 3 -48 3 -49 230 0 230 0 3 62 3 62 -130 3 -131
3 95 102 c114 123 136 163 136 243 1 96 -43 159 -130 189 -46 15 -157 13 -204
-3z"/>
<path d="M230 1179 c-102 -20 -182 -104 -199 -207 -18 -116 26 -222 113 -277
40 -24 62 -30 122 -33 88 -5 134 9 187 57 117 105 117 297 0 402 -59 53 -140
74 -223 58z m118 -135 c33 -23 52 -67 52 -124 0 -90 -45 -140 -126 -140 -107
0 -152 179 -63 254 36 30 101 35 137 10z"/>
<path d="M857 1176 c-26 -7 -59 -24 -72 -36 l-25 -23 0 31 0 32 -65 0 -65 0 2
-257 3 -258 68 -3 67 -3 0 153 c0 126 3 159 18 188 30 62 105 76 148 28 17
-18 19 -41 22 -194 l3 -174 70 0 69 0 0 159 c0 148 1 160 23 192 28 42 73 57
113 38 48 -23 54 -49 54 -226 l0 -163 71 0 71 0 -4 193 c-3 172 -6 196 -25
232 -29 55 -54 76 -114 91 -67 18 -138 3 -185 -38 l-34 -30 -35 31 c-49 43
-108 55 -178 37z"/>
</g>
</svg>
